<svg id="wave" style="transform:rotate(180deg); transition: 0.3s" viewBox="0 0 1440 490" version="1.1" xmlns="http://www.w3.org/2000/svg"><defs><linearGradient id="sw-gradient-0" x1="0" x2="0" y1="1" y2="0"><stop stop-color="rgba(156, 39, 176, 1)" offset="0%"></stop><stop stop-color="rgba(233, 30, 99, 1)" offset="100%"></stop></linearGradient></defs><path style="transform:translate(0, 0px); opacity:1" fill="url(#sw-gradient-0)" d="M0,392L60,392C120,392,240,392,360,359.3C480,327,600,261,720,236.8C840,212,960,229,1080,204.2C1200,180,1320,114,1440,138.8C1560,163,1680,278,1800,285.8C1920,294,2040,196,2160,155.2C2280,114,2400,131,2520,187.8C2640,245,2760,343,2880,343C3000,343,3120,245,3240,228.7C3360,212,3480,278,3600,326.7C3720,376,3840,408,3960,424.7C4080,441,4200,441,4320,416.5C4440,392,4560,343,4680,269.5C4800,196,4920,98,5040,122.5C5160,147,5280,294,5400,294C5520,294,5640,147,5760,98C5880,49,6000,98,6120,106.2C6240,114,6360,82,6480,73.5C6600,65,6720,82,6840,122.5C6960,163,7080,229,7200,261.3C7320,294,7440,294,7560,310.3C7680,327,7800,359,7920,310.3C8040,261,8160,131,8280,122.5C8400,114,8520,229,8580,285.8L8640,343L8640,490L8580,490C8520,490,8400,490,8280,490C8160,490,8040,490,7920,490C7800,490,7680,490,7560,490C7440,490,7320,490,7200,490C7080,490,6960,490,6840,490C6720,490,6600,490,6480,490C6360,490,6240,490,6120,490C6000,490,5880,490,5760,490C5640,490,5520,490,5400,490C5280,490,5160,490,5040,490C4920,490,4800,490,4680,490C4560,490,4440,490,4320,490C4200,490,4080,490,3960,490C3840,490,3720,490,3600,490C3480,490,3360,490,3240,490C3120,490,3000,490,2880,490C2760,490,2640,490,2520,490C2400,490,2280,490,2160,490C2040,490,1920,490,1800,490C1680,490,1560,490,1440,490C1320,490,1200,490,1080,490C960,490,840,490,720,490C600,490,480,490,360,490C240,490,120,490,60,490L0,490Z"></path><defs><linearGradient id="sw-gradient-1" x1="0" x2="0" y1="1" y2="0"><stop stop-color="rgba(156, 39, 176, 1)" offset="0%"></stop><stop stop-color="rgba(233, 30, 99, 1)" offset="100%"></stop></linearGradient></defs><path style="transform:translate(0, 50px); opacity:0.9" fill="url(#sw-gradient-1)" d="M0,49L60,89.8C120,131,240,212,360,236.8C480,261,600,229,720,204.2C840,180,960,163,1080,204.2C1200,245,1320,343,1440,343C1560,343,1680,245,1800,187.8C1920,131,2040,114,2160,122.5C2280,131,2400,163,2520,204.2C2640,245,2760,294,2880,318.5C3000,343,3120,343,3240,310.3C3360,278,3480,212,3600,212.3C3720,212,3840,278,3960,318.5C4080,359,4200,376,4320,343C4440,310,4560,229,4680,220.5C4800,212,4920,278,5040,326.7C5160,376,5280,408,5400,408.3C5520,408,5640,376,5760,310.3C5880,245,6000,147,6120,122.5C6240,98,6360,147,6480,204.2C6600,261,6720,327,6840,343C6960,359,7080,327,7200,318.5C7320,310,7440,327,7560,334.8C7680,343,7800,343,7920,318.5C8040,294,8160,245,8280,187.8C8400,131,8520,65,8580,32.7L8640,0L8640,490L8580,490C8520,490,8400,490,8280,490C8160,490,8040,490,7920,490C7800,490,7680,490,7560,490C7440,490,7320,490,7200,490C7080,490,6960,490,6840,490C6720,490,6600,490,6480,490C6360,490,6240,490,6120,490C6000,490,5880,490,5760,490C5640,490,5520,490,5400,490C5280,490,5160,490,5040,490C4920,490,4800,490,4680,490C4560,490,4440,490,4320,490C4200,490,4080,490,3960,490C3840,490,3720,490,3600,490C3480,490,3360,490,3240,490C3120,490,3000,490,2880,490C2760,490,2640,490,2520,490C2400,490,2280,490,2160,490C2040,490,1920,490,1800,490C1680,490,1560,490,1440,490C1320,490,1200,490,1080,490C960,490,840,490,720,490C600,490,480,490,360,490C240,490,120,490,60,490L0,490Z"></path></svg>